:version 1.10
:name ASF
:units
  mass 1
  length 1
  angle deg
:documentation
  ASF file generated by Kaydara
:root
  axis xyz
  order  tx ty tz rx ry rz
  position 0 0 0
  orientation 0 0 0
:bonedata
  begin
    id 1
    name RightUpLegDummy
    direction -0.718183 -0.695806 0.00816078
    length 4.904
    axis 0 0 0 xyz
  end
  begin
    id 2
    name RightUpLeg
    direction 3.53373e-006 -0.995788 0.0916898
    length 17.4976
    axis -3.49089 -0.000906625 0.000286804 xyz
    dof rx ry rz
  end
  begin
    id 3
    name RightLeg
    direction 0.00371092 -0.995096 -0.0988419
    length 16.5821
    axis 3.68512 0.0193738 -0.131023 xyz
    dof rx ry rz
  end
  begin
    id 4
    name RightFoot
    direction 0.00079151 -0.46099 0.887405
    length 3.77069
    axis 4.81691e-005 -0.120479 -0.188788 xyz
    dof rx ry rz
  end
  begin
    id 5
    name RightToes
    direction 0 0 0
    length 0
    axis 0 0 0 xyz
    dof rx ry rz
  end
  begin
    id 6
    name SpineDummy
    direction 8.3039e-015 1 4.57515e-016
    length 4.6813
    axis 0 0 0 xyz
  end
  begin
    id 7
    name Spine
    direction -3.15643e-008 0.999988 0.00495137
    length 10.1015
    axis -0.001389 0.000121418 2.40972e-006 xyz
    dof rx ry rz
  end
  begin
    id 8
    name Spine1
    direction 0 0 0
    length 0
    axis -0.001389 0.000121451 1.30017e-006 xyz
    dof rx ry rz
  end
  begin
    id 9
    name HEadDummy
    direction -1.99912e-008 0.999999 0.00127422
    length 3.43865
    axis -0.001389 0.000121451 1.30017e-006 xyz
  end
  begin
    id 10
    name HEad
    direction 0 0 0
    length 0
    axis 0 0 0 xyz
    dof rx ry rz
  end
  begin
    id 11
    name LeftShoulder1Dummy
    direction 0.998891 -0.0402509 -0.0244456
    length 3.5433
    axis -0.001389 0.000121451 1.30017e-006 xyz
  end
  begin
    id 12
    name LeftShoulder1
    direction 0.99951 -0.000327763 0.0313091
    length 4.05031
    axis -0.001389 0.000121451 1.30017e-006 xyz
    dof rx ry rz
  end
  begin
    id 13
    name LeftArm
    direction 0.998561 -0.00100056 -0.0536182
    length 10.3537
    axis -23.1894 0.134784 0.967509 xyz
    dof rx ry rz
  end
  begin
    id 14
    name LeftForeArm
    direction 0.998903 0.00866432 0.046012
    length 8.70632
    axis -9.91835 -0.06569 -0.177794 xyz
    dof rx ry rz
  end
  begin
    id 15
    name LeftHand
    direction 0 0 0
    length 0
    axis 0 0 0 xyz
    dof rx ry rz
  end
  begin
    id 16
    name RightShoulderDummy
    direction -0.998891 -0.0402509 -0.0244414
    length 3.5433
    axis -0.001389 0.000121451 1.30017e-006 xyz
  end
  begin
    id 17
    name RightShoulder
    direction -0.99951 -0.000327807 0.0313133
    length 4.05031
    axis 0.215806 0.000203643 -0.0068026 xyz
    dof rx ry rz
  end
  begin
    id 18
    name RightArm
    direction -0.998573 -0.000999564 -0.053403
    length 10.3947
    axis -23.2009 -0.134239 -0.964101 xyz
    dof rx ry rz
  end
  begin
    id 19
    name RightForeArm
    direction -0.998898 0.00868028 0.0461306
    length 8.68355
    axis -9.92322 0.0658061 0.178868 xyz
    dof rx ry rz
  end
  begin
    id 20
    name RightHand
    direction 0 0 0
    length 0
    axis 0 0 0 xyz
    dof rx ry rz
  end
  begin
    id 21
    name LeftUpLegDummy
    direction 0.718183 -0.695806 0.00816078
    length 4.904
    axis 0 0 0 xyz
  end
  begin
    id 22
    name LeftUpLeg
    direction -6.81752e-006 -0.995793 0.0916337
    length 17.4976
    axis -3.48766 0.00143442 -0.000524262 xyz
    dof rx ry rz
  end
  begin
    id 23
    name LeftLeg
    direction -0.00601358 -0.995091 -0.0987824
    length 16.5821
    axis 3.68178 -0.00654042 -0.000285133 xyz
    dof rx ry rz
  end
  begin
    id 24
    name LeftFoot
    direction -0.00417578 -0.460984 0.887399
    length 3.77069
    axis 1.87233e-006 4.66016e-005 -8.6538e-006 xyz
    dof rx ry rz
  end
  begin
    id 25
    name LeftToes
    direction 0 0 0
    length 0
    axis 0 0 0 xyz
    dof rx ry rz
  end
:hierarchy
  begin
    root RightUpLegDummy SpineDummy LeftUpLegDummy
    RightUpLegDummy RightUpLeg
    RightUpLeg RightLeg
    RightLeg RightFoot
    RightFoot RightToes
    SpineDummy Spine
    Spine Spine1
    Spine1 HEadDummy LeftShoulder1Dummy RightShoulderDummy
    HEadDummy HEad
    LeftShoulder1Dummy LeftShoulder1
    LeftShoulder1 LeftArm
    LeftArm LeftForeArm
    LeftForeArm LeftHand
    RightShoulderDummy RightShoulder
    RightShoulder RightArm
    RightArm RightForeArm
    RightForeArm RightHand
    LeftUpLegDummy LeftUpLeg
    LeftUpLeg LeftLeg
    LeftLeg LeftFoot
    LeftFoot LeftToes
  end

:SAMPLES-PER-SECOND 30
:FULLY-SPECIFIED
:DEGREES
438
root  34.0986 39.4395 11.429 166.479 71.1817 169.826
RightUpLeg  -5.79015 -28.077 -13.6002
RightLeg  26.6097 -12.5139 -6.95585
RightFoot  -7.59991 -0.220526 5.16555
RightToes  0.000481921 0.542163 -0.142578
Spine  14.2795 -1.07207 5.69092
Spine1  12.9999 0.297869 -2.08494
HEad  11.1051 -5.65478 -12.223
LeftShoulder1  6.17258 -14.4301 -28.3233
LeftArm  1.20886 -24.9992 -58.2213
LeftForeArm  -166.39 -58.2684 -165.862
LeftHand  -0.25398 0.0180481 5.50724
RightShoulder  3.81803 10.1207 21.7294
RightArm  -14.8881 30.7514 51.8391
RightForeArm  151.101 72.5398 146.353
RightHand  -1.09046 2.98712 -15.3344
LeftUpLeg  -9.88187 6.80242 3.47077
LeftLeg  16.3733 -2.45103 -0.524547
LeftFoot  -0.281568 0.561712 -5.78359
LeftToes  1.06244e-005 4.65869e-005 -8.65518e-006
439
root  33.8671 39.4789 11.6277 166.859 69.3619 169.406
RightUpLeg  -6.65796 -29.3669 -13.6067
RightLeg  26.6423 -13.0691 -7.25513
RightFoot  -7.40954 -0.222532 5.01119
RightToes  0.000481921 0.542163 -0.142578
Spine  15.2937 -0.493632 8.18118
Spine1  12.6042 2.13804 -4.99394
HEad  10.7499 -8.69617 -12.3717
LeftShoulder1  6.12896 -14.554 -27.8319
LeftArm  2.19871 -25.4636 -58.9972
LeftForeArm  -167.255 -58.9891 -165.392
LeftHand  -0.25398 0.0180481 5.50724
RightShoulder  3.2016 9.54088 17.9901
RightArm  -22.1225 36.8103 47.3836
RightForeArm  117.399 79.0659 113.989
RightHand  -1.12813 2.56657 -16.6388
LeftUpLeg  -10.5956 6.37731 2.8454
LeftLeg  14.6058 -3.38968 -0.918107
LeftFoot  1.16373 0.61522 -5.67847
LeftToes  1.06244e-005 4.65869e-005 -8.65518e-006
440
root  33.6213 39.4898 11.803 167.252 67.7704 169.169
RightUpLeg  -7.51927 -30.8363 -13.6507
RightLeg  26.8715 -13.2418 -7.41265
RightFoot  -7.27743 -0.220269 4.80961
RightToes  0.000481921 0.542163 -0.142578
Spine  16.3564 0.0749864 10.3449
Spine1  12.3771 3.78969 -7.28746
HEad  10.4426 -11.3933 -12.3065
LeftShoulder1  6.09064 -14.6025 -27.5202
LeftArm  3.05241 -25.9838 -59.8441
LeftForeArm  -168.149 -59.6356 -164.945
LeftHand  -0.25398 0.0180481 5.50724
RightShoulder  2.50737 8.59783 13.818
RightArm  -30.4299 42.8704 40.7387
RightForeArm  51.0682 76.5163 48.5095
RightHand  -1.25031 2.80755 -17.825
LeftUpLeg  -11.2505 6.1726 2.37725
LeftLeg  13.1611 -4.42161 -1.40509
LeftFoot  2.43723 0.659958 -5.58217
LeftToes  1.06244e-005 4.65869e-005 -8.65518e-006
441
root  33.3704 39.4666 11.9492 167.418 66.3735 168.898
RightUpLeg  -8.40895 -31.9629 -13.7721
RightLeg  27.4771 -13.4229 -7.69112
RightFoot  -7.19135 -0.216041 4.60978
RightToes  0.000481921 0.542163 -0.142578
Spine  17.31 0.554388 11.9603
Spine1  12.4993 5.1256 -8.90251
HEad  10.1899 -13.4041 -12.3642
LeftShoulder1  6.06914 -14.8292 -26.9703
LeftArm  3.62281 -26.3967 -60.6255
LeftForeArm  -168.932 -60 -164.663
LeftHand  -0.25398 0.0180481 5.50724
RightShoulder  1.83789 7.24804 9.80832
RightArm  -39.7463 49.5469 31.0995
RightForeArm  21.6666 60.2799 18.3186
RightHand  -1.89527 6.06641 -19.3857
LeftUpLeg  -11.8856 5.79982 1.90958
LeftLeg  12.2045 -5.1601 -1.77293
LeftFoot  3.43971 0.70275 -5.57681
LeftToes  1.06244e-005 4.65869e-005 -8.65518e-006
442
root  33.1089 39.4071 12.0481 167.028 65.6733 168.288
RightUpLeg  -9.47266 -31.9187 -13.8726
RightLeg  28.4806 -13.8566 -8.24069
RightFoot  -7.11098 -0.212151 4.43183
RightToes  0.000481921 0.542163 -0.142578
Spine  18.4413 0.904654 13.6974
Spine1  12.7628 6.551 -10.922
HEad  10.0917 -14.8165 -12.5543
LeftShoulder1  6.06074 -15.4183 -25.8539
LeftArm  3.92411 -26.6864 -61.0944
LeftForeArm  -170.414 -60.2508 -164.385
LeftHand  -0.25398 0.0180481 5.50724
RightShoulder  1.23163 5.53501 5.90776
RightArm  -51.7903 57.1645 18.1047
RightForeArm  15.6455 35.0915 6.43263
RightHand  -2.67212 10.2786 -20.1282
LeftUpLeg  -12.5117 5.64881 1.40009
LeftLeg  11.9943 -5.45704 -1.94738
LeftFoot  3.97858 0.727975 -5.59062
LeftToes  1.06244e-005 4.65869e-005 -8.65518e-006
443
root  32.8623 39.3245 12.0822 166.15 65.9366 167.262
RightUpLeg  -10.7396 -30.8798 -13.8745
RightLeg  29.5731 -14.2468 -8.81679
RightFoot  -7.07101 -0.208169 4.29086
RightToes  0.000481921 0.542163 -0.142578
Spine  19.8517 1.18218 16.0191
Spine1  12.6774 8.39486 -14.0783
HEad  10.4983 -15.9835 -12.6366
LeftShoulder1  6.06431 -16.1904 -24.5533
LeftArm  4.53269 -26.987 -61.2304
LeftForeArm  -172.504 -60.8435 -163.83
LeftHand  -0.25398 0.0180481 5.50724
RightShoulder  0.689404 3.65064 1.36599
RightArm  -64.2117 63.4626 3.33659
RightForeArm  23.4452 8.09176 -1.81646
RightHand  -2.30223 10.896 -16.5806
LeftUpLeg  -13.2007 6.31814 0.889198
LeftLeg  12.5258 -5.62569 -2.04706
LeftFoot  4.00389 0.725502 -5.56392
LeftToes  1.06244e-005 4.65869e-005 -8.65518e-006
444
root  32.7058 39.2638 12.0457 165.503 66.5015 166.322
RightUpLeg  -11.8157 -30.1755 -13.8432
RightLeg  30.1689 -14.2024 -8.99067
RightFoot  -7.07086 -0.20511 4.20919
RightToes  0.000481921 0.542163 -0.142578
Spine  20.8579 1.42588 17.896
Spine1  12.0633 9.96479 -17.0865
HEad  11.5541 -16.718 -12.3145
LeftShoulder1  6.09496 -16.7038 -23.8845
LeftArm  5.70786 -27.0028 -61.2761
LeftForeArm  -173.23 -61.7048 -163.198
LeftHand  -0.25398 0.0180481 5.50724
RightShoulder  0.299864 1.91549 -3.24226
RightArm  -66.0889 66.0845 -4.17944
RightForeArm  38.0329 -6.29252 -5.97334
RightHand  -1.21613 9.50003 -10.0453
LeftUpLeg  -13.8877 7.42896 0.45129
LeftLeg  13.1614 -5.96595 -2.16476
LeftFoot  3.78707 0.720593 -5.59797
LeftToes  1.06244e-005 4.65869e-005 -8.65518e-006
445
root  32.6991 39.278 11.9466 165.851 66.4801 166.328
RightUpLeg  -11.9857 -30.7254 -13.8918
RightLeg  29.7991 -13.8128 -8.64034
RightFoot  -6.95864 -0.208134 4.20006
RightToes  0.000481921 0.542163 -0.142578
Spine  20.6566 1.49593 17.6056
Spine1  11.3657 9.94407 -17.5029
HEad  12.7763 -16.3063 -11.5171
LeftShoulder1  6.1985 -16.6147 -24.5699
LeftArm  6.61084 -25.9331 -60.9818
LeftForeArm  -171.315 -61.9613 -163.192
LeftHand  -0.25398 0.0180481 5.50724
RightShoulder  0.165546 0.865992 -5.12546
RightArm  -59.3914 65.4502 1.98078
RightForeArm  45.8466 -2.78834 -4.79823
RightHand  -1.16478 10.0434 -9.20848
LeftUpLeg  -14.171 7.72302 0.283677
LeftLeg  13.1253 -6.17268 -2.26857
LeftFoot  3.67004 0.737625 -5.76534
LeftToes  1.06244e-005 4.65869e-005 -8.65518e-006
446
root  32.8236 39.376 11.7982 166.912 65.9347 167.379
RightUpLeg  -10.8496 -31.892 -14.0882
RightLeg  28.4673 -13.4821 -8.02665
RightFoot  -6.58348 -0.222199 4.26714
RightToes  0.000481921 0.542163 -0.142578
Spine  19.3371 1.26286 14.8171
Spine1  11.3568 8.17433 -14.7103
HEad  13.5177 -14.6522 -10.4823
LeftShoulder1  6.33928 -16.1311 -26.1118
LeftArm  6.44021 -23.6994 -60.2241
LeftForeArm  -168.49 -61.1785 -163.957
LeftHand  -0.25398 0.0180481 5.50724
RightShoulder  0.327182 1.20015 -1.82189
RightArm  -51.3232 62.3601 14.1496
RightForeArm  40.6292 12.7892 -0.833985
RightHand  -1.72478 10.7532 -12.8276
LeftUpLeg  -13.6052 6.83013 0.549288
LeftLeg  12.294 -5.85724 -2.29857
LeftFoot  3.72885 0.758568 -5.90365
LeftToes  1.06244e-005 4.65869e-005 -8.65518e-006
447
root  33.0131 39.5148 11.6058 167.619 65.7606 168.507
RightUpLeg  -8.90623 -32.3711 -14.4066
RightLeg  26.6039 -13.3913 -7.41008
RightFoot  -6.00868 -0.245894 4.39866
RightToes  0.000481921 0.542163 -0.142578
Spine  17.7591 0.855743 11.0312
Spine1  12.0902 5.8741 -10.7709
HEad  13.7847 -12.4606 -9.71043
LeftShoulder1  6.42359 -15.5746 -27.5463
LeftArm  5.58515 -21.4181 -59.2343
LeftForeArm  -167.252 -60.0639 -164.763
LeftHand  -0.25398 0.0180481 5.50724
RightShoulder  0.879486 3.39149 4.80136
RightArm  -41.2309 56.7436 25.8145
RightForeArm  32.3721 40.2415 7.68808
RightHand  -2.02475 10.8666 -14.896
LeftUpLeg  -12.2782 5.76322 1.0458
LeftLeg  11.1851 -5.09841 -2.25368
LeftFoot  3.79177 0.7454 -5.78284
LeftToes  1.06244e-005 4.65869e-005 -8.65518e-006
